<svg width="71" height="36" viewBox="0 0 71 36" fill="none" xmlns="http://www.w3.org/2000/svg">
<g clip-path="url(#clip0_1_369)">
<path d="M67.7446 17.0815L67.7075 17.1187C67.9677 16.4125 68.488 16.1523 68.934 16.1523C69.5659 16.1523 70.1234 16.6355 70.1234 17.3417C70.1234 17.4904 70.1234 17.6762 70.0491 17.8992C68.7482 21.2444 65.9977 22.9541 63.3216 23.2143C62.0951 25.2957 60.088 26.8196 57.226 26.8196C53.1375 26.8196 51.3163 23.586 51.3163 20.055C51.3163 15.7063 54.0668 10.8744 58.6756 10.8744C59.6791 10.8744 60.534 11.0975 61.2402 11.3948C63.3216 12.1753 64.6597 14.8886 64.6597 17.7877C64.6597 18.7169 64.5853 19.6461 64.3623 20.5382C65.7376 20.055 67.0384 18.9399 67.7446 17.0815ZM59.9765 13.9222V13.8851C59.1588 13.8851 58.6756 14.9629 58.6756 16.2638C58.6756 18.1594 59.7163 19.9063 61.3517 20.5382C61.6119 19.7205 61.7234 18.7913 61.7234 17.7134C61.7234 15.632 61.0915 13.9222 59.9765 13.9222ZM57.2632 24.1063C58.3039 24.1063 59.3446 23.6603 60.1623 22.7311C57.7464 21.6532 56.2225 19.1258 56.2225 16.7098C56.2225 15.8921 56.3712 15.0373 56.5942 14.2939C55.1075 15.5205 54.2526 17.9364 54.2526 20.055C54.2526 22.8054 55.5535 24.1063 57.2632 24.1063Z" fill="black" style="fill:black;fill-opacity:1;"/>
<path d="M51.8902 17.0815L51.853 17.1187C52.1132 16.4125 52.5592 16.1152 53.0052 16.1152C53.6371 16.1152 54.2689 16.6727 54.2689 17.3789C54.2689 17.5647 54.2318 17.7134 54.1574 17.8992C52.7079 21.4302 50.5521 25.5559 47.0955 27.9718L47.0212 28.7152C46.6123 33.1754 44.3451 36.0001 41.4831 36.0001C39.3273 36.0001 38.0636 34.5134 38.0636 32.7665C38.0636 29.6072 41.2972 28.455 44.3079 26.5223C44.3822 25.7417 44.4194 24.8497 44.4565 23.8461C42.9698 25.4815 41.3716 26.1506 39.9592 26.1506C37.1344 26.1506 34.83 23.8461 34.83 20.3152C34.83 14.8886 38.3981 11.3205 42.3751 11.3205H42.4123C45.1256 11.3205 48.0247 12.77 48.0247 15.3718C48.0247 16.2267 47.653 20.8727 47.3557 24.478C49.3627 22.5824 51.0353 19.4975 51.8902 17.0815ZM40.368 23.4745C41.7433 23.4745 43.6017 22.6196 44.7539 18.4196C44.9397 17.4904 45.0512 16.6727 45.0141 15.7063C44.7911 14.7028 43.9362 14.1081 42.7096 14.1081C40.1822 14.1081 37.7663 16.524 37.7663 20.2037C37.7663 22.4338 38.807 23.4745 40.368 23.4745ZM41.7804 33.2869H41.8176C42.5981 33.2869 43.453 32.7665 44.0105 29.4214C42.3751 30.3877 40.8512 31.3541 40.8512 32.5063C40.8512 32.9895 41.2229 33.2869 41.7804 33.2869Z" fill="black" style="fill:black;fill-opacity:1;"/>
<path d="M35.4822 17.0815L35.4451 17.1187C35.7052 16.4125 36.2256 16.1523 36.6716 16.1523C37.3035 16.1523 37.861 16.6355 37.861 17.3417C37.861 17.4904 37.861 17.6762 37.7867 17.8992C36.4858 21.2444 33.7353 22.9541 31.0592 23.2143C29.8327 25.2957 27.8256 26.8196 24.9636 26.8196C20.8751 26.8196 19.0539 23.586 19.0539 20.055C19.0539 15.7063 21.8043 10.8744 26.4132 10.8744C27.4167 10.8744 28.2716 11.0975 28.9778 11.3948C31.0592 12.1753 32.3973 14.8886 32.3973 17.7877C32.3973 18.7169 32.3229 19.6461 32.0999 20.5382C33.4752 20.055 34.776 18.9399 35.4822 17.0815ZM27.7141 13.9222V13.8851C26.8964 13.8851 26.4132 14.9629 26.4132 16.2638C26.4132 18.1594 27.4539 19.9063 29.0893 20.5382C29.3495 19.7205 29.461 18.7913 29.461 17.7134C29.461 15.632 28.8291 13.9222 27.7141 13.9222ZM25.0008 24.1063C26.0415 24.1063 27.0822 23.6603 27.8999 22.7311C25.484 21.6532 23.9601 19.1258 23.9601 16.7098C23.9601 15.8921 24.1088 15.0373 24.3318 14.2939C22.8451 15.5205 21.9902 17.9364 21.9902 20.055C21.9902 22.8054 23.2911 24.1063 25.0008 24.1063Z" fill="black" style="fill:black;fill-opacity:1;"/>
<path d="M20.9429 15.9083C20.4225 15.9083 19.9765 16.1685 19.6791 16.8747C18.7128 19.3278 16.7056 23.4907 14.6613 23.4907C13.3741 23.4907 12.378 23.1996 11.3714 22.9054C10.3435 22.605 9.30467 22.3013 7.93378 22.3013C7.45058 22.3013 6.78154 22.3757 6.14967 22.4872C8.05325 19.8914 8.76439 16.7477 9.45347 10.8054C8.15601 10.7228 7.1006 10.4831 6.33132 10.241C5.50967 17.7775 4.57661 20.6511 1.16904 23.4907C0.72301 23.8624 0.5 24.3828 0.5 24.9032C0.5 25.7209 1.20621 26.4271 2.09827 26.4271C2.39562 26.4271 2.73013 26.3156 3.06465 26.1669C4.96027 25.312 6.1125 25.089 7.52492 25.089C8.42309 25.089 9.49783 25.3459 10.6485 25.6208C11.9739 25.9376 13.4 26.2784 14.7729 26.2784C17.7835 26.2784 19.7535 23.3421 21.9464 17.6552C22.058 17.4694 22.0951 17.2464 22.0951 17.0605C22.0951 16.3543 21.5376 15.9083 20.9429 15.9083Z" fill="black" style="fill:black;fill-opacity:1;"/>
<path fill-rule="evenodd" clip-rule="evenodd" d="M6.51991 8.70287C7.193 8.93784 8.24382 9.2114 9.60625 9.29233L9.82926 9.29222C14.0294 9.29222 16.7799 6.6904 16.7799 3.56821C16.7799 1.56109 15.2188 0 13.0258 0C10.0894 0 8.04516 2.00712 7.00443 5.98419C5.70352 5.27798 4.81147 4.01424 4.36544 2.41598C4.14242 1.63543 3.65923 1.15223 2.99018 1.15223C2.17247 1.15223 1.6521 1.78411 1.6521 2.63899C1.6521 5.16648 3.62206 7.58245 6.52123 8.69752L6.51991 8.70287ZM10.0523 6.57889C10.6098 4.01424 11.5019 2.78767 12.6913 2.78767C13.3232 2.78767 13.732 3.15936 13.732 3.8284C13.732 5.05497 12.4311 6.50455 10.0523 6.57889Z" fill="black" style="fill:black;fill-opacity:1;"/>
</g>
<defs>
<clipPath id="clip0_1_369">
<rect width="71" height="36.0001" fill="white" style="fill:white;fill-opacity:1;"/>
</clipPath>
</defs>
</svg>
